<svg version="1.1" id="Layer_1" xmlns="http://www.w3.org/2000/svg" xmlns:xlink="http://www.w3.org/1999/xlink" x="0px" y="0px"
	 width="100%" viewBox="0 0 199 84" enable-background="new 0 0 199 84" xml:space="preserve">
<path fill="#FFFFFF" opacity="1.000000" stroke="none" 
	d="
M1.000000,61.000000 
	C1.000000,56.975456 1.000000,52.950912 1.321363,48.616707 
	C3.968785,55.909172 9.857192,59.167534 17.064594,59.878296 
	C24.676788,60.628971 31.332619,58.482086 35.228588,50.395218 
	C33.517513,49.261925 31.899633,48.190353 30.104094,47.001118 
	C29.379181,48.359062 29.061085,49.116650 28.606716,49.781040 
	C24.095209,56.377922 15.124085,55.731861 13.099996,47.821213 
	C12.128387,44.023918 12.412199,39.775391 12.801003,35.797039 
	C13.180459,31.914345 15.664421,28.622147 19.712566,28.934334 
	C22.434996,29.144289 25.006224,31.569435 27.597990,33.084137 
	C28.533636,33.630951 29.331989,34.412682 30.338840,35.201466 
	C31.753225,33.657948 32.945122,32.357227 34.226704,30.958637 
	C28.865511,24.405960 22.679300,21.995770 14.505055,23.861439 
	C7.903953,25.368057 4.346931,29.897003 1.000000,35.000000 
	C1.000000,23.696255 1.000000,12.392509 1.000000,1.000000 
	C45.354191,1.000000 89.708435,1.000000 134.402679,1.328656 
	C125.054039,6.327470 115.365387,10.997628 105.323036,15.838277 
	C108.103462,15.838277 110.648666,15.838277 113.026230,15.838277 
	C113.736847,21.586544 118.284897,17.593868 120.181458,19.994888 
	C121.077400,21.041033 122.129478,21.867273 123.223686,21.927446 
	C125.673767,22.062187 128.318405,21.483379 128.518188,24.960674 
	C120.867073,21.895100 113.987778,22.523634 107.934959,27.643349 
	C102.714134,32.059330 100.291031,37.835770 101.366684,44.753296 
	C102.688736,53.255383 108.034607,58.311157 116.134468,59.820721 
	C124.449425,61.370377 131.359512,58.469849 136.187744,50.475796 
	C134.554016,49.340729 132.953613,48.228806 131.168167,46.988331 
	C130.548141,48.117386 130.251785,48.690998 129.924988,49.246708 
	C127.417061,53.511417 123.379150,55.373493 119.017700,53.708694 
	C115.083511,52.206982 112.602829,48.656334 112.973213,43.857941 
	C113.139191,41.707561 112.746758,39.495720 113.061523,37.379257 
	C113.607155,33.710617 114.945213,30.428473 118.923088,29.067671 
	C122.796600,27.742579 125.503105,29.506042 127.812035,32.341145 
	C128.502899,33.189449 129.096069,34.117325 130.017731,35.405247 
	C131.902802,33.905914 133.605087,32.551971 135.323776,31.184975 
	C133.319809,28.834301 131.724213,26.962669 130.451080,24.930080 
	C131.355179,24.524113 132.038177,23.945509 132.502563,24.086567 
	C136.426117,25.278370 140.309753,26.601604 143.250366,27.570644 
	C142.565063,30.079802 140.761276,33.124641 141.354645,35.593323 
	C141.865616,37.719322 145.109207,39.188534 147.073959,40.887074 
	C142.113876,44.633480 142.352661,46.926598 147.479568,50.471481 
	C147.265259,54.452217 147.090256,57.703049 146.455078,60.970924 
	C97.663277,60.991982 49.331638,60.995991 1.000000,61.000000 
M69.000725,32.552948 
	C69.000725,41.301178 69.000725,50.049412 69.000725,59.039524 
	C71.373192,58.932056 72.974388,58.859524 74.986053,58.768398 
	C74.986053,51.604248 74.986053,44.733715 74.986053,36.673248 
	C79.688484,43.584774 83.979599,49.313198 87.603188,55.436630 
	C89.745041,59.056110 92.205963,59.549187 95.760437,58.565708 
	C95.760437,47.038712 95.760437,35.783970 95.760437,24.315022 
	C93.811142,24.315022 92.103188,24.315022 89.939392,24.315022 
	C89.939392,29.126322 89.939392,33.650524 89.939392,39.180958 
	C87.475349,35.607914 85.626068,32.960289 83.811768,30.288898 
	C78.875328,23.020428 78.181412,22.744123 69.000725,24.751579 
	C69.000725,26.969660 69.000725,29.271770 69.000725,32.552948 
M58.240334,39.004681 
	C55.635288,39.004681 53.030243,39.004681 50.370674,39.004681 
	C50.370674,35.704517 50.370674,33.001152 50.370674,29.907137 
	C54.336006,29.907137 57.933125,29.907137 61.670174,29.907137 
	C61.670174,27.793835 61.670174,26.085115 61.670174,24.392447 
	C54.309021,24.392447 47.274734,24.392447 40.268974,24.392447 
	C40.268974,36.025246 40.268974,47.264057 40.268974,58.700954 
	C47.588799,58.700954 54.638584,58.700954 62.227264,58.700954 
	C61.119583,50.356316 53.888176,54.594425 50.289391,52.287155 
	C50.289391,49.607677 50.289391,47.019131 50.289391,43.879356 
	C53.964424,43.879356 57.358269,43.879356 62.250263,43.879356 
	C60.763973,41.547703 59.960312,40.286938 58.240334,39.004681 
z"/>
<path fill="#37969D" opacity="1.000000" stroke="none" 
	d="
M146.915237,60.953888 
	C147.090256,57.703049 147.265259,54.452217 147.479568,50.471481 
	C142.352661,46.926598 142.113876,44.633480 147.073959,40.887074 
	C145.109207,39.188534 141.865616,37.719322 141.354645,35.593323 
	C140.761276,33.124641 142.565063,30.079802 143.250366,27.570644 
	C140.309753,26.601604 136.426117,25.278370 132.502563,24.086567 
	C132.038177,23.945509 131.355179,24.524113 130.147156,24.896236 
	C129.317505,25.006050 129.114227,24.988747 128.910950,24.971445 
	C128.318405,21.483379 125.673767,22.062187 123.223686,21.927446 
	C122.129478,21.867273 121.077400,21.041033 120.181458,19.994888 
	C118.284897,17.593868 113.736847,21.586544 113.026230,15.838277 
	C110.648666,15.838277 108.103462,15.838277 105.323036,15.838277 
	C115.365387,10.997628 125.054039,6.327470 134.871338,1.328656 
	C138.030594,1.000000 141.061188,1.000000 144.665512,1.352801 
	C146.628143,5.224234 148.017059,8.742865 149.405975,12.261497 
	C149.911667,12.077458 150.417374,11.893420 150.923080,11.709382 
	C150.616608,9.850444 149.828293,7.902565 150.150024,6.159577 
	C150.427429,4.656757 151.968872,3.387260 152.951462,2.014606 
	C153.966507,3.338854 155.562881,4.549976 155.848221,6.016224 
	C156.198456,7.816074 155.453186,9.829112 155.181488,11.749992 
	C155.616135,11.873524 156.050766,11.997056 156.485413,12.120588 
	C157.990280,8.413726 159.495132,4.706863 161.000000,1.000001 
	C163.700012,1.000000 166.400024,1.000000 169.679459,1.331520 
	C175.601212,4.337534 180.830231,7.280067 186.321747,9.601724 
	C190.715622,11.459345 195.428635,12.562176 200.000000,14.000001 
	C200.000000,14.444445 200.000000,14.888889 199.569153,15.667082 
	C196.987473,16.000830 194.836655,16.000830 193.119720,16.000830 
	C191.959778,21.162001 187.660828,17.765516 185.742371,19.973457 
	C185.029282,21.022894 184.125076,21.583162 183.154480,21.981806 
	C181.481339,22.669004 179.766907,23.255655 177.882202,24.156666 
	C177.083786,24.646364 176.472961,24.863894 175.544556,24.920580 
	C173.910980,24.303625 172.595016,23.847513 171.188980,23.360186 
	C171.105270,24.106077 171.070068,24.599751 170.990158,25.086077 
	C170.890518,25.692543 170.754028,26.292952 170.802094,26.052567 
	C167.359756,26.461174 164.433273,26.808552 161.109634,27.203070 
	C166.846802,34.178253 166.380615,35.988197 158.284622,40.570232 
	C163.555878,44.868435 163.272751,46.514359 156.105194,51.882507 
	C160.809586,54.446632 158.729996,58.308876 157.952835,62.209045 
	C157.895798,64.036499 157.984619,65.582115 158.048035,67.511703 
	C156.348450,73.597122 154.674225,79.298561 153.000000,85.000000 
	C153.000000,85.000000 152.500000,85.000000 152.240356,84.617439 
	C151.624313,81.918335 151.293701,79.597412 150.901001,77.287033 
	C150.692810,76.062202 150.454834,74.831856 150.092529,73.646095 
	C149.416855,71.434715 148.640564,69.254082 148.059143,66.744858 
	C147.779861,64.604004 147.347549,62.778942 146.915237,60.953888 
M147.861389,32.030342 
	C144.363297,36.486000 149.607834,34.987450 150.610367,37.044178 
	C150.610367,32.678547 150.610367,29.086733 150.610367,24.688683 
	C149.762268,27.663498 149.164749,29.759369 147.861389,32.030342 
z"/>
<path fill="#FFFFFF" opacity="1.000000" stroke="none" 
	d="
M147.906128,67.060661 
	C148.640564,69.254082 149.416855,71.434715 150.092529,73.646095 
	C150.454834,74.831856 150.692810,76.062202 150.901001,77.287033 
	C151.293701,79.597412 151.624313,81.918335 151.990356,84.617439 
	C101.666656,85.000000 51.333305,85.000000 1.000000,85.000000 
	C1.000000,80.931160 1.000000,76.942245 1.468648,72.479919 
	C47.871674,72.006721 93.806366,71.933243 139.739914,72.128525 
	C144.027313,72.146744 146.705124,71.220207 147.906128,67.060661 
z"/>
<path fill="#FFFFFF" opacity="1.000000" stroke="none" 
	d="
M158.098694,61.927200 
	C158.729996,58.308876 160.809586,54.446632 156.105194,51.882507 
	C163.272751,46.514359 163.555878,44.868435 158.284622,40.570232 
	C166.380615,35.988197 166.846802,34.178253 161.109634,27.203070 
	C164.433273,26.808552 167.359756,26.461174 170.802094,26.052567 
	C170.754028,26.292952 170.890518,25.692543 170.990158,25.086077 
	C171.070068,24.599751 171.105270,24.106077 171.188980,23.360186 
	C172.595016,23.847513 173.910980,24.303625 175.420547,25.242054 
	C167.402649,33.443493 171.129196,40.855850 177.854675,44.494499 
	C180.906845,46.145798 183.571121,48.514107 186.503250,50.623264 
	C181.979980,55.346596 180.433884,55.154606 175.276596,49.560337 
	C173.919952,50.702919 171.210495,52.099804 171.358856,53.050945 
	C171.636215,54.829193 173.357254,56.602726 174.886566,57.893921 
	C176.062103,58.886421 177.830063,59.261673 179.394638,59.694016 
	C185.458633,61.369698 192.964661,58.190704 194.875870,53.215973 
	C197.532761,46.300289 195.519989,41.719223 188.196228,38.053986 
	C186.725647,37.318012 184.767899,36.993710 183.859604,35.833736 
	C182.640274,34.276524 182.223068,32.091228 181.461517,30.175566 
	C183.527298,30.183825 185.660278,29.886177 187.632660,30.319523 
	C188.746735,30.564289 189.596664,32.011398 190.851349,33.184013 
	C192.286728,32.293980 193.722427,31.403749 195.134872,30.527935 
	C191.273010,23.637287 185.432770,21.878222 178.069794,23.884497 
	C179.766907,23.255655 181.481339,22.669004 183.154480,21.981806 
	C184.125076,21.583162 185.029282,21.022894 185.742371,19.973457 
	C187.660828,17.765516 191.959778,21.162001 193.119720,16.000830 
	C194.836655,16.000830 196.987473,16.000830 199.569153,16.000416 
	C200.000000,38.912914 200.000000,61.825832 200.000000,85.000000 
	C184.646759,85.000000 169.292038,85.000000 153.468658,85.000000 
	C154.674225,79.298561 156.348450,73.597122 158.410828,67.638657 
	C159.035110,70.981949 160.746780,72.614532 164.515640,72.047882 
	C166.628128,71.730263 168.812775,71.892639 171.400360,71.905960 
	C173.885239,71.932182 175.934647,71.891197 178.414612,71.908157 
	C180.870422,71.952583 182.895676,71.939072 185.357559,71.953598 
	C187.248474,71.944191 188.702759,71.906746 190.590393,71.916840 
	C192.266037,71.964386 193.508331,71.964386 194.773224,71.964386 
	C194.773224,68.020264 194.773224,64.601013 194.773224,61.118374 
	C193.065704,61.118374 191.589981,61.118374 189.709473,61.079620 
	C187.509918,61.407486 185.715149,61.774105 183.582764,61.949097 
	C181.486359,61.557915 179.727585,61.358356 177.536209,61.089058 
	C175.056290,61.067299 173.008987,61.115284 170.511658,61.092182 
	C166.074005,61.323128 162.086349,61.625164 158.098694,61.927200 
z"/>
<path fill="#413875" opacity="1.000000" stroke="none" 
	d="
M148.059143,66.744858 
	C146.705124,71.220207 144.027313,72.146744 139.739914,72.128525 
	C93.806366,71.933243 47.871674,72.006721 1.468648,72.003265 
	C1.000000,68.638710 1.000000,65.277428 1.000000,61.458069 
	C49.331638,60.995991 97.663277,60.991982 146.455078,60.970928 
	C147.347549,62.778942 147.779861,64.604004 148.059143,66.744858 
M31.703440,68.985962 
	C33.951004,68.822235 36.198566,68.658501 39.592068,68.411293 
	C33.135590,64.670784 28.866615,64.964317 26.942663,68.670509 
	C28.311371,68.777817 29.589664,68.878036 31.703440,68.985962 
M81.601532,67.978889 
	C85.260429,69.180099 88.926300,70.589157 93.794716,67.656631 
	C88.750496,65.919312 85.039085,64.755562 81.601532,67.978889 
z"/>
<path fill="#50B7BE" opacity="1.000000" stroke="none" 
	d="
M1.000000,35.463184 
	C4.346931,29.897003 7.903953,25.368057 14.505055,23.861439 
	C22.679300,21.995770 28.865511,24.405960 34.226704,30.958637 
	C32.945122,32.357227 31.753225,33.657948 30.338840,35.201466 
	C29.331989,34.412682 28.533636,33.630951 27.597990,33.084137 
	C25.006224,31.569435 22.434996,29.144289 19.712566,28.934334 
	C15.664421,28.622147 13.180459,31.914345 12.801003,35.797039 
	C12.412199,39.775391 12.128387,44.023918 13.099996,47.821213 
	C15.124085,55.731861 24.095209,56.377922 28.606716,49.781040 
	C29.061085,49.116650 29.379181,48.359062 30.104094,47.001118 
	C31.899633,48.190353 33.517513,49.261925 35.228588,50.395218 
	C31.332619,58.482086 24.676788,60.628971 17.064594,59.878296 
	C9.857192,59.167534 3.968785,55.909172 1.321363,48.153519 
	C1.000000,43.975456 1.000000,39.950912 1.000000,35.463184 
z"/>
<path fill="#FFFFFF" opacity="1.000000" stroke="none" 
	d="
M200.000000,13.523339 
	C195.428635,12.562176 190.715622,11.459345 186.321747,9.601724 
	C180.830231,7.280067 175.601212,4.337534 170.129440,1.331520 
	C179.893341,1.000000 189.786667,1.000000 200.000000,1.000000 
	C200.000000,5.009893 200.000000,9.028285 200.000000,13.523339 
z"/>
<path fill="#FFFFFF" opacity="1.000000" stroke="none" 
	d="
M160.533142,1.000001 
	C159.495132,4.706863 157.990280,8.413726 156.485413,12.120588 
	C156.050766,11.997056 155.616135,11.873524 155.181488,11.749992 
	C155.453186,9.829112 156.198456,7.816074 155.848221,6.016224 
	C155.562881,4.549976 153.966507,3.338854 152.951462,2.014606 
	C151.968872,3.387260 150.427429,4.656757 150.150024,6.159577 
	C149.828293,7.902565 150.616608,9.850444 150.923080,11.709382 
	C150.417374,11.893420 149.911667,12.077458 149.405975,12.261497 
	C148.017059,8.742865 146.628143,5.224234 145.119629,1.352801 
	C150.022095,1.000000 155.044189,1.000000 160.533142,1.000001 
z"/>
<path fill="#50B7BE" opacity="1.000000" stroke="none" 
	d="
M69.000725,32.063416 
	C69.000725,29.271770 69.000725,26.969660 69.000725,24.751579 
	C78.181412,22.744123 78.875328,23.020428 83.811768,30.288898 
	C85.626068,32.960289 87.475349,35.607914 89.939392,39.180958 
	C89.939392,33.650524 89.939392,29.126322 89.939392,24.315022 
	C92.103188,24.315022 93.811142,24.315022 95.760437,24.315022 
	C95.760437,35.783970 95.760437,47.038712 95.760437,58.565708 
	C92.205963,59.549187 89.745041,59.056110 87.603188,55.436630 
	C83.979599,49.313198 79.688484,43.584774 74.986053,36.673248 
	C74.986053,44.733715 74.986053,51.604248 74.986053,58.768398 
	C72.974388,58.859524 71.373192,58.932056 69.000725,59.039524 
	C69.000725,50.049412 69.000725,41.301178 69.000725,32.063416 
z"/>
<path fill="#4FB7BD" opacity="1.000000" stroke="none" 
	d="
M128.518188,24.960674 
	C129.114227,24.988747 129.317505,25.006050 129.824707,25.057194 
	C131.724213,26.962669 133.319809,28.834301 135.323776,31.184975 
	C133.605087,32.551971 131.902802,33.905914 130.017731,35.405247 
	C129.096069,34.117325 128.502899,33.189449 127.812035,32.341145 
	C125.503105,29.506042 122.796600,27.742579 118.923088,29.067671 
	C114.945213,30.428473 113.607155,33.710617 113.061523,37.379257 
	C112.746758,39.495720 113.139191,41.707561 112.973213,43.857941 
	C112.602829,48.656334 115.083511,52.206982 119.017700,53.708694 
	C123.379150,55.373493 127.417061,53.511417 129.924988,49.246708 
	C130.251785,48.690998 130.548141,48.117386 131.168167,46.988331 
	C132.953613,48.228806 134.554016,49.340729 136.187744,50.475796 
	C131.359512,58.469849 124.449425,61.370377 116.134468,59.820721 
	C108.034607,58.311157 102.688736,53.255383 101.366684,44.753296 
	C100.291031,37.835770 102.714134,32.059330 107.934959,27.643349 
	C113.987778,22.523634 120.867073,21.895100 128.518188,24.960674 
z"/>
<path fill="#50B7BE" opacity="1.000000" stroke="none" 
	d="
M58.698490,39.015427 
	C59.960312,40.286938 60.763973,41.547703 62.250263,43.879356 
	C57.358269,43.879356 53.964424,43.879356 50.289391,43.879356 
	C50.289391,47.019131 50.289391,49.607677 50.289391,52.287155 
	C53.888176,54.594425 61.119583,50.356316 62.227264,58.700954 
	C54.638584,58.700954 47.588799,58.700954 40.268974,58.700954 
	C40.268974,47.264057 40.268974,36.025246 40.268974,24.392447 
	C47.274734,24.392447 54.309021,24.392447 61.670174,24.392447 
	C61.670174,26.085115 61.670174,27.793835 61.670174,29.907137 
	C57.933125,29.907137 54.336006,29.907137 50.370674,29.907137 
	C50.370674,33.001152 50.370674,35.704517 50.370674,39.004681 
	C53.030243,39.004681 55.635288,39.004681 58.698490,39.015427 
z"/>
<path fill="#50B7BE" opacity="1.000000" stroke="none" 
	d="
M177.882202,24.156666 
	C185.432770,21.878222 191.273010,23.637287 195.134872,30.527935 
	C193.722427,31.403749 192.286728,32.293980 190.851349,33.184013 
	C189.596664,32.011398 188.746735,30.564289 187.632660,30.319523 
	C185.660278,29.886177 183.527298,30.183825 181.461517,30.175566 
	C182.223068,32.091228 182.640274,34.276524 183.859604,35.833736 
	C184.767899,36.993710 186.725647,37.318012 188.196228,38.053986 
	C195.519989,41.719223 197.532761,46.300289 194.875870,53.215973 
	C192.964661,58.190704 185.458633,61.369698 179.394638,59.694016 
	C177.830063,59.261673 176.062103,58.886421 174.886566,57.893921 
	C173.357254,56.602726 171.636215,54.829193 171.358856,53.050945 
	C171.210495,52.099804 173.919952,50.702919 175.276596,49.560337 
	C180.433884,55.154606 181.979980,55.346596 186.503250,50.623264 
	C183.571121,48.514107 180.906845,46.145798 177.854675,44.494499 
	C171.129196,40.855850 167.402649,33.443493 175.738129,25.402897 
	C176.472961,24.863894 177.083786,24.646364 177.882202,24.156666 
z"/>
<path fill="#3E3573" opacity="1.000000" stroke="none" 
	d="
M157.952835,62.209042 
	C162.086349,61.625164 166.074005,61.323128 170.523773,61.533901 
	C170.978882,65.310722 170.971909,68.574738 170.964935,71.838745 
	C168.812775,71.892639 166.628128,71.730263 164.515640,72.047882 
	C160.746780,72.614532 159.035110,70.981949 158.436218,67.254684 
	C157.984619,65.582115 157.895798,64.036499 157.952835,62.209042 
z"/>
<path fill="#FFFFFF" opacity="1.000000" stroke="none" 
	d="
M148.214310,31.942791 
	C149.164749,29.759369 149.762268,27.663498 150.610367,24.688683 
	C150.610367,29.086733 150.610367,32.678547 150.610367,37.044178 
	C149.607834,34.987450 144.363297,36.486000 148.214310,31.942791 
z"/>
<path fill="#38939C" opacity="1.000000" stroke="none" 
	d="
M171.400375,71.905960 
	C170.971909,68.574738 170.978882,65.310722 170.973770,61.604992 
	C173.008987,61.115284 175.056290,61.067299 177.548096,61.533096 
	C177.989731,65.314651 177.986893,68.582436 177.984070,71.850212 
	C175.934647,71.891197 173.885239,71.932182 171.400375,71.905960 
z"/>
<path fill="#50B5BD" opacity="1.000000" stroke="none" 
	d="
M178.414612,71.908157 
	C177.986893,68.582436 177.989731,65.314651 177.980682,61.602837 
	C179.727585,61.358356 181.486359,61.557915 183.608551,62.376770 
	C184.288300,65.972565 184.604614,68.949059 184.920929,71.925552 
	C182.895676,71.939072 180.870422,71.952583 178.414612,71.908157 
z"/>
<path fill="#A1D4CF" opacity="1.000000" stroke="none" 
	d="
M185.357559,71.953598 
	C184.604614,68.949059 184.288300,65.972565 183.946167,62.568398 
	C185.715149,61.774105 187.509918,61.407486 189.675262,61.525871 
	C190.082916,65.297020 190.119980,68.583160 190.157043,71.869293 
	C188.702759,71.906746 187.248474,71.944191 185.357559,71.953598 
z"/>
<path fill="#3F3875" opacity="1.000000" stroke="none" 
	d="
M190.590393,71.916840 
	C190.119980,68.583160 190.082916,65.297020 190.080048,61.564625 
	C191.589981,61.118374 193.065704,61.118374 194.773224,61.118374 
	C194.773224,64.601013 194.773224,68.020264 194.773224,71.964386 
	C193.508331,71.964386 192.266037,71.964386 190.590393,71.916840 
z"/>
<path fill="#928DAF" opacity="1.000000" stroke="none" 
	d="
M31.285698,68.982109 
	C29.589664,68.878036 28.311371,68.777817 26.942663,68.670509 
	C28.866615,64.964317 33.135590,64.670784 39.592068,68.411293 
	C36.198566,68.658501 33.951004,68.822235 31.285698,68.982109 
z"/>
<path fill="#908BAE" opacity="1.000000" stroke="none" 
	d="
M81.407143,67.621384 
	C85.039085,64.755562 88.750496,65.919312 93.794716,67.656631 
	C88.926300,70.589157 85.260429,69.180099 81.407143,67.621384 
z"/>
</svg>